<svg xmlns="http://www.w3.org/2000/svg" width="25" height="25" fill="none"><defs><clipPath id="a"><path fill="#fff" fill-opacity="0" d="M0 0h25v25H0z"/></clipPath></defs><path fill="none" d="M0 0h25v25H0z"/><g clip-path="url(#a)"><path fill="#039BE5" fill-rule="evenodd" d="M25 12.5C25 19.404 19.404 25 12.5 25S0 19.404 0 12.5 5.596 0 12.5 0 25 5.596 25 12.5Z"/><path fill="#FFF" d="m5.72 12.23 12.052-4.648c.56-.202 1.048.137.866.982h.002l-2.053 9.667c-.152.686-.559.852-1.129.53l-3.125-2.304-1.507 1.452c-.167.167-.307.308-.63.308l.222-3.18 5.791-5.233c.252-.222-.056-.347-.388-.126l-7.158 4.506-3.085-.962c-.67-.213-.684-.67.142-.993Z"/></g></svg>